<?xml version="1.0" encoding="UTF-8"?>
<svg id="Capa_2" data-name="Capa 2" xmlns="http://www.w3.org/2000/svg" viewBox="0 0 834 817.57">
  <defs>
    <style>
      .cls-1 {
        fill: #003c8f;
      }
    </style>
  </defs>
  <g id="Capa_1-2" data-name="Capa 1">
    <g>
      <path class="cls-1" d="M803.52,0c11.36,7.04,21.54,15.24,30.48,24.66V0h-30.48Z"/>
      <path class="cls-1" d="M799.23,309.72c2.96,1.13,5.91,2.3,8.73,3.61,9.92,4.65,18.53,10.59,26.04,17.62v-44.96c-6.33,6.07-13.12,11.44-20.44,15.98-4.6,2.84-9.42,5.36-14.34,7.75Z"/>
      <path class="cls-1" d="M709.55,44.99c-15.36,0-28.1,2.5-38.17,7.46-10.17,5-18.34,11.13-24.27,18.54-6.16,7.29-10.39,15.1-12.92,23.3-2.44,8.29-4,15.56-4.43,22.17h156.04c-4.42-23.39-12.44-41.12-23.84-53.29-11.6-12.09-29.06-18.16-52.41-18.16Z"/>
      <path class="cls-1" d="M531.85,46.88c6.84,11.41,11.41,24.41,14,38.86.39-1.02.67-2.1,1.07-3.12,8.51-21.59,20.68-40.27,36.37-56C593.64,16.24,605.46,7.46,618.45,0h-134.98c3.97,2.27,7.81,4.68,11.52,7.32,15.13,10.53,27.39,23.81,36.87,39.56Z"/>
      <path class="cls-1" d="M769.49,624.58c-1-5.4-1.9-10.87-2.27-16.46-15.49,15.21-33.49,25.71-54.2,31.87-20.76,6.01-41.99,8.99-63.59,8.99-16.66,0-32.21-1.93-46.68-5.76-14.34-3.95-26.98-9.99-37.82-18.16-9.57-7.3-17.23-16.44-23.11-27.13-8.76,12.89-19.71,23.58-33.06,31.73-14.83,9.05-31.82,15.56-50.92,19.13-19.15,3.72-38.6,5.51-58.41,5.51-20.27,0-40.04-1.93-59.34-5.82-19.41-3.94-36.64-10.33-51.68-19.46-15.08-8.97-27.47-21.01-37.15-35.96-9.67-14.9-14.87-33.55-15.79-55.96h91.41c0,9.87,2.08,18.39,6.32,25.49,4.34,7.15,9.82,12.91,16.6,17.45,6.73,4.6,14.45,7.89,23.24,10.08,8.76,2.21,17.86,3.23,27.31,3.23,6.75,0,13.82-.77,21.18-2.33,7.47-1.42,14.23-3.86,20.3-7.09,6.01-3.26,11.07-7.63,15.16-12.92,4.03-5.48,6.07-12.23,6.07-20.52,0-13.91-9.57-24.27-28.75-31.14-19.19-6.95-45.92-13.88-80.15-20.8-14-3.03-27.58-6.61-40.84-10.7-13.37-4.15-25.1-9.57-35.54-16.23-10.35-6.78-18.72-15.16-25.04-25.46-6.28-10.02-9.4-22.51-9.4-37.23,0-21.63,4.34-39.39,13.14-53.25,8.75-13.82,20.37-24.75,34.79-32.86,5.51-3.01,11.38-5.62,17.4-7.95-21.25-8.43-39.48-20.03-54.47-34.88-15.18-15.1-27.13-33.13-35.61-54.01-8.64-20.92-12.81-43.93-12.81-69,0-25.85,3.94-49.92,11.81-72.06,7.78-22.3,19.38-41.43,34.65-57.67C262.32,16.58,274.05,7.58,287.13,0H0s0,817.57,0,817.57h834s0-177.07,0-177.07l-60.17-.2c-1.73-5.14-3.21-10.39-4.33-15.72Z"/>
      <path class="cls-1" d="M381.16,259.38c22.89,0,40.65-6.19,53.03-18.56,12.35-12.27,20.1-28.81,23.3-49.55h80.15c-2.26-12.32-3.45-25.21-3.45-38.74,0-17.32,2.19-33.74,6.26-49.47h-86.35c-6.28-38.66-29.96-58.06-70.88-58.06-15.31,0-28.2,3.26-38.6,10.02-10.33,6.72-18.76,15.33-25.37,25.88-6.47,10.56-11.1,22.25-13.78,35-2.69,12.74-4.07,25.42-4.07,37.86,0,12.06,1.39,24.44,4.07,36.95,2.68,12.51,7.08,23.81,13.15,33.97,6.08,10.22,14.34,18.47,24.74,25,10.29,6.44,22.89,9.71,37.8,9.71Z"/>
      <path class="cls-1" d="M653.47,239.25c14.4,13.42,35.11,20.12,62.19,20.12,19.41,0,36.03-4.66,49.92-13.96,14.05-9.37,22.56-19.27,25.72-29.61h42.71s0-41.32,0-41.32h-204.24c1.43,29.86,9.34,51.42,23.7,64.77Z"/>
      <path class="cls-1" d="M495.94,292.95c-8.81,6.96-18.45,12.69-28.73,17.57,11.18,3.38,21.55,7.75,31.07,13.31,14,8.11,25.55,19.04,34.77,32.7,5.3,7.89,9.27,17.08,12.14,27.38,2.87-11.15,7.07-21.14,12.97-29.71,9.89-14.28,22.56-25.77,37.83-34.43,8.06-4.52,16.7-8.32,25.86-11.52-15.2-7.66-28.53-17.28-39.94-28.93-15.21-15.52-27.02-34.03-35.33-55.68-.79-2.04-1.36-4.2-2.08-6.3-8.8,31.9-24.88,57.16-48.57,75.6Z"/>
      <path class="cls-1" d="M728,489.46c-6.94,1.39-14.28,2.36-22,3.3-7.61.88-15.29,1.96-23.01,3.2-7.21,1.31-14.32,3.1-21.35,5.14-7.02,2.18-13.14,5.14-18.33,8.88-5.08,3.72-9.34,8.26-12.51,13.84-3.12,5.62-4.71,12.74-4.71,21.43,0,8.2,1.59,15.1,4.71,20.75,3.17,5.65,7.47,10.1,12.93,13.34,5.46,3.12,11.72,5.48,18.9,6.73,7.29,1.36,14.72,1.96,22.46,1.96,18.96,0,33.54-2.98,43.94-9.05,10.41-6.08,18.05-13.26,23.06-21.68,4.98-8.49,8.04-17.01,9.17-25.66,1.09-8.63,1.72-15.47,1.72-20.71v-34.46c-4.12,3.52-9.17,6.24-15.27,8.18-6.12,1.93-12.63,3.57-19.69,4.82Z"/>
      <path class="cls-1" d="M549.62,407.97h-91.39c-1.39-17.59-8.4-29.65-21.02-35.9-12.7-6.21-27.54-9.39-44.8-9.39-5.42,0-11.25.31-17.56.96-6.31.68-12.04,2.13-17.26,4.29-5.17,2.1-9.65,5.31-13.14,9.37-3.72,4.11-5.5,9.62-5.5,16.51,0,8.29,3.14,15.02,9.53,20.15,6.24,5.25,14.45,9.45,24.61,12.69,10.18,3.29,21.75,6.16,34.77,8.83,13.14,2.52,26.45,5.39,39.96,8.4,13.96,3.07,27.57,6.73,40.94,10.98,13.19,4.4,24.99,10.16,35.43,17.28,8.74,6.05,15.95,13.34,21.79,21.74,6.13-8.63,13.4-15.81,21.94-21.52,10.96-7.35,23.61-12.89,37.83-16.63,14.18-3.64,28.55-6.59,42.99-8.69,14.39-2.19,28.58-3.95,42.55-5.17,13.88-1.33,26.37-3.38,37.15-5.93,10.79-2.56,19.35-6.39,25.65-11.36,6.31-4.99,9.29-12.15,8.86-21.77,0-9.93-1.72-17.88-5.14-23.7-3.39-5.88-7.89-10.36-13.6-13.53-5.62-3.33-12.15-5.51-19.6-6.62-7.39-1.05-15.43-1.65-23.97-1.65-18.96,0-33.89,3.95-44.73,11.72-10.75,7.78-17.13,20.69-18.99,38.89h-87.32s0,.02,0,.02Z"/>
    </g>
  </g>
</svg>